# xmcd CD database file
#
# Track frame offsets:
#	150
#	14595
#	26828
#	39740
#	50074
#	62604
#	77807
#	89960
#	105058
#	118064
#	136236
#	150688
#	167235
#	184179
#	196524
#	214963
#
# Disc length: 3130 seconds
#
# Revision: 0
# Processed by: cddbd v1.5.1PL2 Copyright (c) Steve Scherf et al.
# Submitted via: CDex 1.51
#
DISCID=e00c3810
DTITLE=Rodney Vincent - Country Favourites
DYEAR=1900
DGENRE=Country
TTITLE0=That Old Country Hall
TTITLE1=Blackboard of My Heart
TTITLE2=Crystal Chandeliers
TTITLE3=Singing the Blues
TTITLE4=A Little Bit of Heaven
TTITLE5=Lets Be Fools Like That Again
TTITLE6=Another Shade of Blue
TTITLE7=Old Flame
TTITLE8=Good Times and Music
TTITLE9=Nobody's Child
TTITLE10=Do What You Do Do Well
TTITLE11=If Tommorrow never Comes
TTITLE12=Bop
TTITLE13=Darling on Your Way Out Close the Door
TTITLE14=Song of Love
TTITLE15=I Am Australian
EXTD=
EXTT0=
EXTT1=
EXTT2=
EXTT3=
EXTT4=
EXTT5=
EXTT6=
EXTT7=
EXTT8=
EXTT9=
EXTT10=
EXTT11=
EXTT12=
EXTT13=
EXTT14=
EXTT15=
PLAYORDER=
